# Blender v2.93.2 OBJ File: 'Pod3.blend'
# www.blender.org
mtllib Pod3.mtl
v 1.331673 5.401447 7.715578
v 0.000000 3.272541 7.069735
v 1.001292 6.698275 9.466000
v 0.673919 3.748706 8.347576
v -1.331673 5.401447 7.715578
v -1.001292 6.698275 9.466000
v -0.673919 3.748706 8.347576
v 1.000000 6.203557 5.308182
v -1.000000 6.203557 5.308182
v -1.000000 4.630782 9.789248
v -1.067878 6.504147 10.176826
v 1.067878 6.504147 10.176826
v 1.000000 4.630782 9.789248
v -1.128855 5.539427 11.027275
v 1.128855 5.539427 11.027275
v 0.462434 6.896842 8.211673
v -0.462434 6.896842 8.211673
v -0.403916 6.627114 6.149035
v 0.403916 6.627114 6.149035
v 0.000000 3.057678 6.039990
v 1.148576 5.761949 4.819426
v -1.148576 5.761949 4.819426
v 1.468545 4.794653 6.051490
v 0.000000 3.368297 4.763729
v -1.468545 4.794653 6.051490
v 1.309852 5.711489 3.666441
v -1.309852 5.711489 3.666441
v 1.306541 4.523685 2.900000
v 0.000000 4.059567 2.834543
v -1.306541 4.523685 2.900000
v 0.000000 4.636360 2.415257
v 1.016913 5.113020 2.447875
v -1.016913 5.113020 2.447875
v 3.644596 1.516660 -4.443165
v -3.644596 1.516660 -4.443165
v 3.526082 1.961191 -4.807984
v -3.526082 1.961191 -4.807984
vt 0.375000 0.500000
vt 0.625000 0.500000
vt 0.375000 0.750000
vt 0.375000 0.250000
vt 0.625000 0.250000
vt 0.375000 0.250000
vt 0.375000 0.750000
vt 0.375000 0.750000
vt 0.625000 0.750000
vt 0.375000 0.500000
vt 0.625000 0.500000
vt 0.625000 0.250000
vt 0.625000 0.250000
vt 0.625000 0.250000
vt 0.375000 0.250000
vt 0.375000 0.250000
vt 0.375000 0.250000
vt 0.375000 0.500000
vt 0.625000 0.500000
vt 0.625000 0.500000
vt 0.625000 0.500000
vt 0.625000 0.250000
vt 0.125000 0.750000
vt 0.125000 0.750000
vt 0.125000 0.750000
vt 0.375000 1.000000
vt 0.875000 0.750000
vt 0.375000 0.500000
vt 0.625000 0.250000
vt 0.625000 0.250000
vt 0.000000 0.000000
vt 0.625000 0.250000
vt 0.625000 0.750000
vt 0.625000 0.750000
vt 0.625000 0.500000
vt 0.625000 0.500000
vt 0.625000 0.500000
vt 0.000000 0.000000
vt 0.000000 0.000000
vt 0.000000 0.000000
vt 0.000000 0.000000
vt 0.875000 0.750000
vt 0.000000 0.000000
vt 0.875000 0.750000
vt 0.000000 0.000000
vt 0.000000 0.000000
vn 0.8495 -0.4459 -0.2819
vn -0.8261 -0.5517 0.1151
vn 0.9703 -0.2317 0.0691
vn 0.9308 -0.3654 0.0131
vn 0.9921 0.1122 0.0561
vn 0.7308 -0.6198 0.2861
vn 0.8261 -0.5517 0.1151
vn -0.9980 0.0321 -0.0541
vn -0.7549 -0.6372 -0.1551
vn -0.2420 -0.5705 -0.7848
vn 0.6839 -0.7290 0.0275
vn 0.9236 0.2060 -0.3232
vn -0.3314 -0.8882 -0.3183
vn 0.2420 -0.5705 -0.7848
vn 0.2622 -0.5030 -0.8236
vn -0.2622 -0.5030 -0.8236
vn -0.8495 -0.4459 -0.2819
vn -0.9308 -0.3654 0.0131
vn -0.9703 -0.2317 0.0691
vn -0.9921 0.1122 0.0561
vn 0.7549 -0.6372 -0.1551
vn -0.9236 0.2060 -0.3232
vn -0.7308 -0.6198 0.2861
vn 0.3314 -0.8882 -0.3183
vn 0.9980 0.0321 -0.0541
vn -0.6839 -0.7290 0.0275
vn -0.9416 0.3363 -0.0177
vn -0.4477 0.8849 -0.1284
vn 0.5399 0.8358 -0.0996
vn 0.9562 0.2907 -0.0349
vn 0.0000 0.8931 -0.4499
vn 0.9416 0.3363 -0.0177
vn 0.0000 0.7420 -0.6704
vn 0.4477 0.8849 -0.1284
vn 0.0000 0.6344 0.7730
vn -0.5399 0.8358 -0.0996
vn -0.9562 0.2907 -0.0349
vn 0.0000 -0.9371 0.3492
vn 0.0000 -0.8530 0.5219
vn 0.0000 0.9647 0.2635
vn 0.0000 -0.8062 0.5917
vn 0.0000 0.6613 0.7501
vn 0.0000 0.9916 -0.1297
vn 0.0000 0.9877 0.1564
vn 0.8957 0.4318 0.1064
vn 0.0000 0.9990 -0.0437
vn -0.9582 0.2850 -0.0251
vn 0.0000 0.0683 -0.9977
vn 0.0000 0.8976 -0.4408
vn 0.9203 -0.3636 -0.1441
vn -0.9203 -0.3636 -0.1441
vn -0.8957 0.4318 0.1064
vn 0.9632 0.2683 -0.0170
vn -0.9632 0.2683 -0.0170
vn 0.9582 0.2850 -0.0251
g Body_Cube_BaseColor
usemtl BaseColor
s off
f 2/1/1 1/2/1 4/3/1
f 2/4/2 5/5/2 20/6/2
f 15/7/3 13/8/3 1/2/3
f 4/3/4 1/2/4 13/8/4
f 12/9/5 15/7/5 1/2/5
f 20/10/6 23/11/6 1/2/6
f 1/2/7 2/1/7 20/10/7
f 27/12/8 30/13/8 25/14/8
f 20/6/9 25/14/9 24/15/9
f 29/16/10 30/13/10 31/17/10
f 24/18/11 28/19/11 23/11/11
f 26/20/12 28/19/12 32/21/12
f 24/15/13 30/13/13 29/16/13
f 29/16/14 31/17/14 28/19/14
f 31/17/15 32/21/15 28/19/15
f 30/13/16 33/22/16 31/17/16
f 2/1/17 7/23/17 5/5/17
f 7/23/18 10/24/18 5/5/18
f 14/25/19 5/5/19 10/24/19
f 14/26/20 11/27/20 5/5/20
f 20/10/21 24/18/21 23/11/21
f 27/12/22 33/22/22 30/13/22
f 20/6/23 5/5/23 25/14/23
f 24/18/24 29/28/24 28/19/24
f 26/20/25 23/11/25 28/19/25
f 24/15/26 25/14/26 30/13/26
g Body_Cube_Glass
usemtl Glass
f 5/5/27 9/29/27 22/30/27
f 17/31/28 18/32/28 9/29/28
f 16/33/29 3/34/29 8/35/29
f 1/2/30 8/35/30 3/34/30
f 9/29/31 19/36/31 8/35/31
f 8/35/32 1/2/32 21/37/32
f 8/35/33 22/30/33 9/29/33
f 16/33/34 8/35/34 19/36/34
f 35/38/35 34/39/35 37/40/35
f 36/41/35 37/40/35 34/39/35
f 17/31/36 9/29/36 6/42/36
f 5/5/37 6/42/37 9/29/37
f 9/29/31 18/32/31 19/36/31
f 8/35/33 21/37/33 22/30/33
g Body_Cube_Complement
usemtl Complement
f 2/1/38 4/3/38 7/23/38
f 4/3/39 10/24/39 7/23/39
f 6/42/40 12/9/40 3/34/40
f 13/8/41 14/25/41 10/24/41
f 11/27/42 15/7/42 12/9/42
f 19/43/43 17/44/43 16/33/43
f 3/34/44 17/44/44 6/42/44
f 21/37/45 23/11/45 26/20/45
f 21/37/46 27/12/46 22/30/46
f 25/14/47 5/5/47 22/30/47
f 31/17/48 33/22/48 32/21/48
f 26/20/49 33/22/49 27/12/49
f 35/38/50 37/40/50 30/45/50
f 34/39/51 28/46/51 36/41/51
f 25/14/52 22/30/52 27/12/52
f 12/9/53 1/2/53 3/34/53
f 6/42/54 5/5/54 11/27/54
f 4/3/39 13/8/39 10/24/39
f 6/42/40 11/27/40 12/9/40
f 13/8/41 15/7/41 14/25/41
f 11/27/42 14/25/42 15/7/42
f 19/43/43 18/32/43 17/44/43
f 3/34/44 16/33/44 17/44/44
f 21/37/55 1/2/55 23/11/55
f 21/37/46 26/20/46 27/12/46
f 26/20/49 32/21/49 33/22/49
v 2.553879 0.610079 -0.561948
v 2.717967 2.337523 -0.561948
v 2.553879 0.610079 -9.623847
v 2.038893 2.337523 -9.623847
v 4.139634 0.249577 -0.561948
v 5.151318 1.554925 -0.561948
v 4.139634 0.249577 -9.623847
v 5.710530 1.554925 -9.623847
v 4.156114 3.402822 -9.623847
v 4.197769 2.864410 -0.561948
v 3.132905 1.908911 -9.183393
v 3.187613 1.090808 -9.183393
v 3.938614 0.920077 -9.183393
v 3.946418 2.158440 -9.183393
v 4.469510 1.538279 -9.183393
v 3.757763 1.523303 -9.721819
v 2.987144 0.936481 -0.802883
v 2.912915 2.046507 -0.802883
v 4.880803 1.543623 -0.802883
v 4.006124 0.704828 -0.802883
v 4.043481 2.385076 -0.802883
v 3.766093 1.523303 0.361364
v -2.553879 0.610079 -0.561948
v -2.717967 2.337523 -0.561948
v -2.553879 0.610079 -9.623847
v -2.038893 2.337523 -9.623847
v -4.139634 0.249577 -0.561948
v -5.151318 1.554925 -0.561948
v -4.139634 0.249577 -9.623847
v -5.710530 1.554925 -9.623847
v -4.156114 3.402822 -9.623847
v -4.197769 2.864410 -0.561948
v -3.132905 1.908911 -9.183393
v -3.187613 1.090808 -9.183393
v -3.938614 0.920077 -9.183393
v -3.946418 2.158440 -9.183393
v -4.469510 1.538279 -9.183393
v -3.757763 1.523303 -9.721819
v -2.987144 0.936481 -0.802883
v -2.912915 2.046507 -0.802883
v -4.880803 1.543623 -0.802883
v -4.006124 0.704828 -0.802883
v -4.043481 2.385076 -0.802883
v -3.766093 1.523303 0.361364
vt 0.729201 0.500000
vt 0.625000 0.500000
vt 0.729201 0.500000
vt 0.375000 0.250000
vt 0.625000 0.250000
vt 0.375000 0.250000
vt 0.375000 0.500000
vt 0.625000 0.500000
vt 0.125000 0.500000
vt 0.375000 0.500000
vt 0.875000 0.500000
vt 0.875000 0.500000
vt 0.625000 0.750000
vt 0.712913 0.750000
vt 0.625000 0.750000
vt 0.125000 0.750000
vt 0.375000 0.750000
vt 0.125000 0.750000
vt 0.625000 0.000000
vt 0.375000 0.000000
vt 0.625000 0.000000
vt 0.875000 0.750000
vt 0.712913 0.750000
vt 0.375000 0.750000
vt 0.729201 0.500000
vt 0.729201 0.500000
vt 0.625000 0.500000
vt 0.375000 0.250000
vt 0.375000 0.250000
vt 0.625000 0.250000
vt 0.625000 0.500000
vt 0.375000 0.500000
vt 0.375000 0.500000
vt 0.125000 0.500000
vt 0.875000 0.500000
vt 0.875000 0.500000
vt 0.625000 0.750000
vt 0.625000 0.750000
vt 0.712913 0.750000
vt 0.125000 0.750000
vt 0.125000 0.750000
vt 0.375000 0.750000
vt 0.625000 0.000000
vt 0.625000 0.000000
vt 0.375000 0.000000
vt 0.712913 0.750000
vt 0.875000 0.750000
vt 0.375000 0.750000
vt 0.625000 0.000000
vt 0.375000 0.250000
vt 0.375000 0.000000
vt 0.375000 0.500000
vt 0.625000 0.750000
vt 0.375000 0.750000
vt 0.125000 0.750000
vt 0.125000 0.500000
vt 0.712913 0.750000
vt 0.000000 0.000000
vt 0.729201 0.500000
vt 0.875000 0.750000
vt 0.625000 0.500000
vt 0.375000 0.250000
vt 0.625000 0.000000
vt 0.375000 0.000000
vt 0.375000 0.500000
vt 0.625000 0.750000
vt 0.625000 0.500000
vt 0.125000 0.750000
vt 0.125000 0.500000
vt 0.712913 0.750000
vt 0.729201 0.500000
vt 0.000000 0.000000
vt 0.875000 0.750000
vt 0.625000 0.250000
vt 0.875000 0.500000
vt 0.625000 0.250000
vt 0.375000 0.750000
vt 0.875000 0.500000
vn 0.5329 0.4495 -0.7169
vn -0.6678 -0.0447 -0.7430
vn 0.5406 -0.4642 -0.7016
vn -0.1553 -0.6833 -0.7134
vn -0.2048 0.6676 -0.7158
vn 0.5832 0.5803 0.5685
vn -0.1867 -0.8214 0.5389
vn -0.8169 -0.0546 0.5741
vn -0.2416 0.8066 0.5395
vn 0.5803 -0.6051 0.5450
vn -0.5329 0.4495 -0.7169
vn 0.6678 -0.0447 -0.7430
vn -0.5406 -0.4642 -0.7016
vn 0.1553 -0.6833 -0.7134
vn 0.2048 0.6676 -0.7158
vn -0.5832 0.5803 0.5685
vn 0.1867 -0.8214 0.5389
vn 0.8169 -0.0546 0.5741
vn 0.2416 0.8066 0.5395
vn -0.5803 -0.6051 0.5450
vn -0.9955 0.0946 0.0000
vn 0.7904 -0.6126 0.0000
vn -0.2217 -0.9751 0.0000
vn 0.8080 0.5884 0.0312
vn -0.3349 0.9405 0.0574
vn 0.7644 0.6430 0.0472
vn 0.9955 0.0946 0.0000
vn -0.6386 -0.7685 0.0394
vn 0.2217 -0.9751 0.0000
vn -0.8080 0.5884 0.0312
vn 0.3349 0.9405 0.0574
vn -0.7644 0.6430 0.0472
vn -0.9559 -0.2850 0.0716
vn 0.6386 -0.7685 0.0394
vn -0.4492 0.8928 0.0337
vn 0.9559 -0.2850 0.0716
vn -0.7904 -0.6126 0.0000
vn 0.4492 0.8928 0.0337
g Engine_R_Cube.001_BaseColor
usemtl BaseColor
s off
f 51/47/56 52/48/56 53/49/56
f 49/50/57 48/51/57 53/52/57
f 52/48/58 50/53/58 53/54/58
f 50/53/59 49/55/59 53/56/59
f 48/57/60 51/47/60 53/58/60
f 56/59/61 58/60/61 59/61/61
f 54/62/62 57/63/62 59/64/62
f 55/65/63 54/66/63 59/67/63
f 58/60/64 55/68/64 59/69/64
f 57/63/65 56/59/65 59/70/65
f 73/71/66 75/72/66 74/73/66
f 71/74/67 75/75/67 70/76/67
f 74/73/68 75/77/68 72/78/68
f 72/78/69 75/79/69 71/80/69
f 70/81/70 75/82/70 73/71/70
f 78/83/71 81/84/71 80/85/71
f 76/86/72 81/87/72 79/88/72
f 77/89/73 81/90/73 76/91/73
f 80/85/74 81/92/74 77/93/74
f 79/88/75 81/94/75 78/83/75
g Engine_R_Cube.001_Engine
usemtl Engine
f 39/95/76 40/96/76 38/97/76
f 44/98/77 43/99/77 42/100/77
f 44/98/78 38/101/78 40/102/78
f 47/103/79 43/104/79 46/105/79
f 46/105/80 39/106/80 47/103/80
f 46/105/81 43/104/81 45/107/81
f 62/108/82 61/109/82 60/110/82
f 66/111/83 65/112/83 67/113/83
f 60/114/84 66/111/84 62/115/84
f 69/116/85 68/117/85 65/118/85
f 61/119/86 68/117/86 69/116/86
f 68/117/87 67/113/87 65/118/87
f 39/95/88 41/120/88 40/96/88
f 44/98/89 45/107/89 43/99/89
f 44/98/78 42/100/78 38/101/78
f 46/105/90 41/121/90 39/106/90
f 62/108/91 63/122/91 61/109/91
f 66/111/92 64/123/92 65/112/92
f 60/114/84 64/123/84 66/111/84
f 61/119/93 63/124/93 68/117/93
